<?xml version="1.0" encoding="utf-8"?>
<!-- Generator: Adobe Illustrator 20.1.0, SVG Export Plug-In . SVG Version: 6.00 Build 0)  -->
<svg version="1.1" id="Layer_1" xmlns="http://www.w3.org/2000/svg" xmlns:xlink="http://www.w3.org/1999/xlink" x="0px" y="0px"
	 viewBox="0 0 141.7 141.7" style="enable-background:new 0 0 141.7 141.7;" xml:space="preserve">
<style type="text/css">
	.st0{fill:#CDD5E2;}
	.st1{fill:#7A8290;}
	.st2{fill:none;}
</style>
<path class="st0" d="M25.8,62c0-22.3,18.1-40.4,40.4-40.4s40.4,18.1,40.4,40.4c0,2.7-0.2,5.4-0.8,8c5,0.4,9.7,1.6,13.2,3.3
	c0.8-3.7,1.2-7.4,1.2-11.3c0.2-29.7-24.1-54-54-54c-29.7,0-54,24.3-54,54s24.3,54,54,54c0.2,0,0.6,0,0.8,0l-5.8-14
	C41.3,99.7,25.8,82.8,25.8,62z"/>
<path class="st1" d="M57.8,43.8C67.5,39.7,79,44.4,83,54.3l7.2,17.5c1.7-0.4,3.3-0.8,5-1c0.8-2.7,1.2-5.4,1.2-8.5
	c0-16.7-13.6-30.3-30.3-30.3S35.9,45.5,35.9,62.2c0,13.2,8.5,24.5,20.4,28.5L47.1,69C43.4,59.1,48.1,47.7,57.8,43.8z"/>
<line class="st2" x1="60.3" y1="71.4" x2="64" y2="78.7"/>
<path class="st1" d="M119.4,83.6c-2.1-2.7-4.9-5-7.4-4.7c-0.8,0.2-1.4,0.6-2.1,0.4c-1.4-0.2-2.5-1.4-4.3-1.6c-1.6-0.2-2.9,1-4.3,1
	s-2.7-1.2-4.7-1c-1.9,0.2-3.3,1.6-4.9,1.7c-1.4,0.2-2.9-0.6-4.7-0.2c-2.1,0.6-3.9,1.6-4.9,2.9c-1.9-3.3-14-24.9-18.3-24.7
	c-7,0.4-5.8,9.1-4.1,13.6c0,0,15.3,34.4,16.5,37.5c2.5,6.8,1.6,11.3,1.6,11.3s-12.4,0-16.3,2.7c-1.6,1-2.5,1.9-2.7,3.3
	c-0.8,3.1,0.2,6,2.9,7.4c0,0,33,2.1,47.4-4.3c7.2-3.3,10.9-10.1,12.4-18.4C124.2,99.3,126.7,91,119.4,83.6z"/>
</svg>
