<?xml version="1.0" encoding="utf-8"?>
<!-- Generator: Adobe Illustrator 27.3.1, SVG Export Plug-In . SVG Version: 6.00 Build 0)  -->
<svg version="1.1" id="Layer_1" xmlns="http://www.w3.org/2000/svg" xmlns:xlink="http://www.w3.org/1999/xlink" x="0px" y="0px"
	 viewBox="0 0 400 225" style="enable-background:new 0 0 400 225;" xml:space="preserve">
<style type="text/css">
	.st0{fill:none;}
	.st1{fill:#CDD5E2;}
	.st2{fill:#7A8290;}
</style>
<g>
	<g id="Layer_2_00000117656655480989049480000005656015731766420660_">
		<g id="timeline">
			<rect class="st0" width="400" height="225"/>
			<g>
				<path class="st1" d="M157.6,103.7c0-22.3,18.1-40.4,40.4-40.4s40.4,18.1,40.4,40.4c0,2.7-0.2,5.4-0.8,8c5,0.4,9.7,1.6,13.2,3.3
					c0.8-3.7,1.2-7.4,1.2-11.3c0.2-29.7-24.1-54-54-54c-29.7,0-54,24.3-54,54s24.3,54,54,54c0.2,0,0.6,0,0.8,0l-5.8-14
					C173.1,141.4,157.6,124.5,157.6,103.7z"/>
				<path class="st2" d="M189.6,85.5c9.7-4.1,21.2,0.6,25.2,10.5l7.2,17.5c1.7-0.4,3.3-0.8,5-1c0.8-2.7,1.2-5.4,1.2-8.5
					c0-16.7-13.6-30.3-30.3-30.3s-30.2,13.5-30.2,30.2c0,13.2,8.5,24.5,20.4,28.5l-9.2-21.7C175.2,100.8,179.9,89.4,189.6,85.5z"/>
				<path class="st2" d="M251.2,125.3c-2.1-2.7-4.9-5-7.4-4.7c-0.8,0.2-1.4,0.6-2.1,0.4c-1.4-0.2-2.5-1.4-4.3-1.6
					c-1.6-0.2-2.9,1-4.3,1c-1.4,0-2.7-1.2-4.7-1c-1.9,0.2-3.3,1.6-4.9,1.7c-1.4,0.2-2.9-0.6-4.7-0.2c-2.1,0.6-3.9,1.6-4.9,2.9
					c-1.9-3.3-14-24.9-18.3-24.7c-7,0.4-5.8,9.1-4.1,13.6c0,0,15.3,34.4,16.5,37.5c2.5,6.8,1.6,11.3,1.6,11.3s-12.4,0-16.3,2.7
					c-1.6,1-2.5,1.9-2.7,3.3c-0.8,3.1,0.2,6,2.9,7.4c0,0,33,2.1,47.4-4.3c7.2-3.3,10.9-10.1,12.4-18.4
					C256,141,258.5,132.7,251.2,125.3z"/>
			</g>
		</g>
	</g>
</g>
<line class="st0" x1="187.9" y1="111.5" x2="191.6" y2="118.8"/>
</svg>
