<?xml version="1.0" standalone="no"?>
<!DOCTYPE svg PUBLIC "-//W3C//DTD SVG 20010904//EN"
 "http://www.w3.org/TR/2001/REC-SVG-20010904/DTD/svg10.dtd">
<svg version="1.0" xmlns="http://www.w3.org/2000/svg"
 width="200.000000pt" height="120.000000pt" viewBox="0 0 200.000000 120.000000"
 preserveAspectRatio="xMidYMid meet">

<g transform="translate(0.000000,120.000000) scale(0.100000,-0.100000)"
fill="#000000" stroke="none">
<path d="M637 1062 l-37 -38 0 -425 0 -425 38 -37 38 -37 325 0 325 0 37 38
37 38 0 425 0 425 -38 37 -38 37 -325 0 -325 0 -37 -38z m683 -462 l0 -420
-320 0 -320 0 0 413 c0 228 3 417 7 420 3 4 147 7 320 7 l313 0 0 -420z"/>
<path d="M935 937 c-56 -22 -74 -37 -102 -85 -23 -39 -28 -58 -28 -112 1 -89
31 -154 105 -223 37 -35 63 -70 75 -101 l18 -46 -28 -40 c-30 -44 -28 -70 8
-70 67 0 112 111 72 180 -20 36 -19 44 13 57 60 27 132 163 132 248 0 83 -71
173 -153 193 -55 14 -73 14 -112 -1z m131 -86 c99 -60 42 -301 -70 -301 -28 0
-84 60 -100 107 -29 86 -15 161 36 197 31 22 96 20 134 -3z"/>
</g>
</svg>
