<?xml version="1.0" standalone="no"?>
<!DOCTYPE svg PUBLIC "-//W3C//DTD SVG 20010904//EN"
 "http://www.w3.org/TR/2001/REC-SVG-20010904/DTD/svg10.dtd">
<svg version="1.0" xmlns="http://www.w3.org/2000/svg"
 width="96.000000pt" height="96.000000pt" viewBox="0 0 96.000000 96.000000"
 preserveAspectRatio="xMidYMid meet">

<g transform="translate(0.000000,96.000000) scale(0.100000,-0.100000)"
fill="#000000" stroke="none">
<path d="M189 851 l-29 -29 0 -342 0 -342 29 -29 29 -29 262 0 262 0 29 29 29
29 0 342 0 342 -29 29 -29 29 -262 0 -262 0 -29 -29z m546 -371 l0 -335 -255
0 -255 0 -3 325 c-1 179 0 331 3 338 3 10 60 12 257 10 l253 -3 0 -335z"/>
<path d="M415 746 c-115 -52 -126 -214 -22 -323 17 -18 36 -33 41 -33 11 0 46
-74 46 -96 0 -6 -9 -19 -20 -29 -28 -26 -23 -60 10 -60 16 0 31 11 47 34 26
39 29 75 8 111 -18 31 -18 40 -2 40 18 0 71 57 92 99 25 49 30 129 12 172 -32
77 -138 119 -212 85z m114 -61 c100 -51 27 -283 -74 -237 -53 25 -90 132 -65
193 22 53 84 73 139 44z"/>
</g>
</svg>
